<?xml version="1.0" standalone="no"?>
<!DOCTYPE svg PUBLIC "-//W3C//DTD SVG 20010904//EN"
 "http://www.w3.org/TR/2001/REC-SVG-20010904/DTD/svg10.dtd">
<svg version="1.0" xmlns="http://www.w3.org/2000/svg"
 width="200.000000pt" height="200.000000pt" viewBox="0 0 200.000000 200.000000"
 preserveAspectRatio="xMidYMid meet">

<g transform="translate(0.000000,200.000000) scale(0.100000,-0.100000)"
fill="#000000" stroke="none">
<path d="M905 1993 c-453 -53 -793 -364 -886 -808 -7 -33 -13 -116 -13 -185 0
-179 30 -303 110 -460 304 -595 1115 -720 1590 -246 297 298 376 755 195 1133
-121 252 -329 436 -591 523 -116 38 -292 57 -405 43z m277 -522 c124 -48 241
-165 289 -289 31 -79 38 -227 14 -308 -51 -178 -182 -308 -359 -359 -81 -24
-229 -17 -308 14 -121 47 -242 167 -289 289 -33 85 -38 238 -10 329 48 160
168 281 329 334 81 27 253 22 334 -10z"/>
</g>
</svg>
